<mxfile host="app.diagrams.net" agent="Mozilla/5.0 (Macintosh; Intel Mac OS X 10_15_7) AppleWebKit/605.1.15 (KHTML, like Gecko) Version/17.5 Safari/605.1.15" version="26.0.16">
  <diagram name="Page-1" id="1RUMee6qlrNCFfYP1BZC">
    <mxGraphModel dx="679" dy="460" grid="1" gridSize="10" guides="1" tooltips="1" connect="1" arrows="1" fold="1" page="1" pageScale="1" pageWidth="827" pageHeight="1169" math="0" shadow="0">
      <root>
        <mxCell id="0" />
        <mxCell id="1" parent="0" />
        <mxCell id="gsk25Ts8o4jq-v6EUmC2-17" value="create account" style="edgeStyle=orthogonalEdgeStyle;rounded=0;orthogonalLoop=1;jettySize=auto;html=1;" edge="1" parent="1" source="gsk25Ts8o4jq-v6EUmC2-1" target="gsk25Ts8o4jq-v6EUmC2-2">
          <mxGeometry relative="1" as="geometry" />
        </mxCell>
        <mxCell id="gsk25Ts8o4jq-v6EUmC2-1" value="Register Page" style="rounded=0;whiteSpace=wrap;html=1;" vertex="1" parent="1">
          <mxGeometry x="400" y="130" width="120" height="60" as="geometry" />
        </mxCell>
        <mxCell id="gsk25Ts8o4jq-v6EUmC2-41" style="edgeStyle=orthogonalEdgeStyle;rounded=0;orthogonalLoop=1;jettySize=auto;html=1;" edge="1" parent="1" source="gsk25Ts8o4jq-v6EUmC2-2" target="gsk25Ts8o4jq-v6EUmC2-9">
          <mxGeometry relative="1" as="geometry">
            <Array as="points">
              <mxPoint x="230" y="200" />
              <mxPoint x="354" y="200" />
            </Array>
          </mxGeometry>
        </mxCell>
        <mxCell id="gsk25Ts8o4jq-v6EUmC2-42" value="Text" style="edgeLabel;html=1;align=center;verticalAlign=middle;resizable=0;points=[];" vertex="1" connectable="0" parent="gsk25Ts8o4jq-v6EUmC2-41">
          <mxGeometry x="0.2011" relative="1" as="geometry">
            <mxPoint as="offset" />
          </mxGeometry>
        </mxCell>
        <mxCell id="gsk25Ts8o4jq-v6EUmC2-2" value="Login page" style="rounded=0;whiteSpace=wrap;html=1;" vertex="1" parent="1">
          <mxGeometry x="170" y="130" width="120" height="60" as="geometry" />
        </mxCell>
        <mxCell id="gsk25Ts8o4jq-v6EUmC2-30" style="edgeStyle=orthogonalEdgeStyle;rounded=0;orthogonalLoop=1;jettySize=auto;html=1;exitX=0.5;exitY=1;exitDx=0;exitDy=0;entryX=0.5;entryY=0;entryDx=0;entryDy=0;" edge="1" parent="1" source="gsk25Ts8o4jq-v6EUmC2-3" target="gsk25Ts8o4jq-v6EUmC2-5">
          <mxGeometry relative="1" as="geometry" />
        </mxCell>
        <mxCell id="gsk25Ts8o4jq-v6EUmC2-31" style="edgeStyle=orthogonalEdgeStyle;rounded=0;orthogonalLoop=1;jettySize=auto;html=1;exitX=0.5;exitY=1;exitDx=0;exitDy=0;entryX=0.5;entryY=0;entryDx=0;entryDy=0;" edge="1" parent="1" source="gsk25Ts8o4jq-v6EUmC2-3" target="gsk25Ts8o4jq-v6EUmC2-16">
          <mxGeometry relative="1" as="geometry" />
        </mxCell>
        <mxCell id="gsk25Ts8o4jq-v6EUmC2-32" style="edgeStyle=orthogonalEdgeStyle;rounded=0;orthogonalLoop=1;jettySize=auto;html=1;exitX=0.5;exitY=1;exitDx=0;exitDy=0;" edge="1" parent="1" source="gsk25Ts8o4jq-v6EUmC2-3" target="gsk25Ts8o4jq-v6EUmC2-6">
          <mxGeometry relative="1" as="geometry" />
        </mxCell>
        <mxCell id="gsk25Ts8o4jq-v6EUmC2-3" value="Account" style="rounded=0;whiteSpace=wrap;html=1;" vertex="1" parent="1">
          <mxGeometry x="620" y="140" width="120" height="60" as="geometry" />
        </mxCell>
        <mxCell id="gsk25Ts8o4jq-v6EUmC2-25" style="edgeStyle=orthogonalEdgeStyle;rounded=0;orthogonalLoop=1;jettySize=auto;html=1;exitX=0.5;exitY=1;exitDx=0;exitDy=0;entryX=0.5;entryY=0;entryDx=0;entryDy=0;" edge="1" parent="1" source="gsk25Ts8o4jq-v6EUmC2-4" target="gsk25Ts8o4jq-v6EUmC2-7">
          <mxGeometry relative="1" as="geometry" />
        </mxCell>
        <mxCell id="gsk25Ts8o4jq-v6EUmC2-4" value="Scan Object" style="rounded=0;whiteSpace=wrap;html=1;" vertex="1" parent="1">
          <mxGeometry x="170" y="320" width="120" height="60" as="geometry" />
        </mxCell>
        <mxCell id="gsk25Ts8o4jq-v6EUmC2-5" value="View History" style="rounded=0;whiteSpace=wrap;html=1;" vertex="1" parent="1">
          <mxGeometry x="550" y="242" width="120" height="60" as="geometry" />
        </mxCell>
        <mxCell id="gsk25Ts8o4jq-v6EUmC2-6" value="View Statisitcs" style="rounded=0;whiteSpace=wrap;html=1;" vertex="1" parent="1">
          <mxGeometry x="700" y="242" width="120" height="60" as="geometry" />
        </mxCell>
        <mxCell id="gsk25Ts8o4jq-v6EUmC2-26" style="edgeStyle=orthogonalEdgeStyle;rounded=0;orthogonalLoop=1;jettySize=auto;html=1;exitX=0.5;exitY=1;exitDx=0;exitDy=0;entryX=0.5;entryY=0;entryDx=0;entryDy=0;" edge="1" parent="1" source="gsk25Ts8o4jq-v6EUmC2-7" target="gsk25Ts8o4jq-v6EUmC2-10">
          <mxGeometry relative="1" as="geometry" />
        </mxCell>
        <mxCell id="gsk25Ts8o4jq-v6EUmC2-7" value="Start Trip" style="rounded=0;whiteSpace=wrap;html=1;" vertex="1" parent="1">
          <mxGeometry x="170" y="410" width="120" height="60" as="geometry" />
        </mxCell>
        <mxCell id="gsk25Ts8o4jq-v6EUmC2-24" style="edgeStyle=orthogonalEdgeStyle;rounded=0;orthogonalLoop=1;jettySize=auto;html=1;exitX=0.5;exitY=1;exitDx=0;exitDy=0;entryX=1;entryY=0.5;entryDx=0;entryDy=0;" edge="1" parent="1" source="gsk25Ts8o4jq-v6EUmC2-8" target="gsk25Ts8o4jq-v6EUmC2-7">
          <mxGeometry relative="1" as="geometry" />
        </mxCell>
        <mxCell id="gsk25Ts8o4jq-v6EUmC2-8" value="View Map" style="rounded=0;whiteSpace=wrap;html=1;" vertex="1" parent="1">
          <mxGeometry x="340" y="320" width="120" height="60" as="geometry" />
        </mxCell>
        <mxCell id="gsk25Ts8o4jq-v6EUmC2-20" style="edgeStyle=orthogonalEdgeStyle;rounded=0;orthogonalLoop=1;jettySize=auto;html=1;exitX=0.5;exitY=1;exitDx=0;exitDy=0;entryX=0.5;entryY=0;entryDx=0;entryDy=0;" edge="1" parent="1" source="gsk25Ts8o4jq-v6EUmC2-9" target="gsk25Ts8o4jq-v6EUmC2-8">
          <mxGeometry relative="1" as="geometry" />
        </mxCell>
        <mxCell id="gsk25Ts8o4jq-v6EUmC2-21" style="edgeStyle=orthogonalEdgeStyle;rounded=0;orthogonalLoop=1;jettySize=auto;html=1;exitX=0.5;exitY=1;exitDx=0;exitDy=0;entryX=0.5;entryY=0;entryDx=0;entryDy=0;" edge="1" parent="1" source="gsk25Ts8o4jq-v6EUmC2-9" target="gsk25Ts8o4jq-v6EUmC2-4">
          <mxGeometry relative="1" as="geometry">
            <Array as="points">
              <mxPoint x="400" y="300" />
              <mxPoint x="230" y="300" />
            </Array>
          </mxGeometry>
        </mxCell>
        <mxCell id="gsk25Ts8o4jq-v6EUmC2-22" style="edgeStyle=orthogonalEdgeStyle;rounded=0;orthogonalLoop=1;jettySize=auto;html=1;exitX=1;exitY=0.5;exitDx=0;exitDy=0;entryX=0.5;entryY=0;entryDx=0;entryDy=0;" edge="1" parent="1" source="gsk25Ts8o4jq-v6EUmC2-9" target="gsk25Ts8o4jq-v6EUmC2-14">
          <mxGeometry relative="1" as="geometry" />
        </mxCell>
        <mxCell id="gsk25Ts8o4jq-v6EUmC2-29" style="edgeStyle=orthogonalEdgeStyle;rounded=0;orthogonalLoop=1;jettySize=auto;html=1;exitX=1;exitY=0.5;exitDx=0;exitDy=0;entryX=0.5;entryY=0;entryDx=0;entryDy=0;" edge="1" parent="1" source="gsk25Ts8o4jq-v6EUmC2-9">
          <mxGeometry relative="1" as="geometry">
            <mxPoint x="473.97" y="242" as="sourcePoint" />
            <mxPoint x="739.97" y="142" as="targetPoint" />
            <Array as="points">
              <mxPoint x="414" y="242" />
              <mxPoint x="577" y="242" />
              <mxPoint x="577" y="122" />
              <mxPoint x="740" y="122" />
            </Array>
          </mxGeometry>
        </mxCell>
        <mxCell id="gsk25Ts8o4jq-v6EUmC2-9" value="Homepage" style="rounded=0;whiteSpace=wrap;html=1;" vertex="1" parent="1">
          <mxGeometry x="294" y="210" width="120" height="60" as="geometry" />
        </mxCell>
        <mxCell id="gsk25Ts8o4jq-v6EUmC2-10" value="Cancel Trip" style="rounded=0;whiteSpace=wrap;html=1;" vertex="1" parent="1">
          <mxGeometry x="170" y="500" width="120" height="60" as="geometry" />
        </mxCell>
        <mxCell id="gsk25Ts8o4jq-v6EUmC2-11" value="Recycle Item" style="rounded=0;whiteSpace=wrap;html=1;" vertex="1" parent="1">
          <mxGeometry x="30" y="500" width="120" height="60" as="geometry" />
        </mxCell>
        <mxCell id="gsk25Ts8o4jq-v6EUmC2-23" style="edgeStyle=orthogonalEdgeStyle;rounded=0;orthogonalLoop=1;jettySize=auto;html=1;exitX=0.5;exitY=1;exitDx=0;exitDy=0;entryX=0.5;entryY=0;entryDx=0;entryDy=0;" edge="1" parent="1" source="gsk25Ts8o4jq-v6EUmC2-14" target="gsk25Ts8o4jq-v6EUmC2-15">
          <mxGeometry relative="1" as="geometry" />
        </mxCell>
        <mxCell id="gsk25Ts8o4jq-v6EUmC2-14" value="View Points and Rewards" style="rounded=0;whiteSpace=wrap;html=1;" vertex="1" parent="1">
          <mxGeometry x="480" y="400" width="120" height="60" as="geometry" />
        </mxCell>
        <mxCell id="gsk25Ts8o4jq-v6EUmC2-15" value="Redeem rewards" style="rounded=0;whiteSpace=wrap;html=1;" vertex="1" parent="1">
          <mxGeometry x="480" y="500" width="120" height="60" as="geometry" />
        </mxCell>
        <mxCell id="gsk25Ts8o4jq-v6EUmC2-16" value="Provide Feedback" style="rounded=0;whiteSpace=wrap;html=1;" vertex="1" parent="1">
          <mxGeometry x="620" y="320" width="120" height="60" as="geometry" />
        </mxCell>
        <mxCell id="gsk25Ts8o4jq-v6EUmC2-35" value="click register" style="edgeStyle=orthogonalEdgeStyle;rounded=0;orthogonalLoop=1;jettySize=auto;html=1;exitX=0.5;exitY=1;exitDx=0;exitDy=0;entryX=0.5;entryY=0;entryDx=0;entryDy=0;" edge="1" parent="1" source="gsk25Ts8o4jq-v6EUmC2-34" target="gsk25Ts8o4jq-v6EUmC2-1">
          <mxGeometry relative="1" as="geometry">
            <mxPoint x="430" y="120" as="targetPoint" />
            <mxPoint as="offset" />
          </mxGeometry>
        </mxCell>
        <mxCell id="gsk25Ts8o4jq-v6EUmC2-36" value="click login" style="edgeStyle=orthogonalEdgeStyle;rounded=0;orthogonalLoop=1;jettySize=auto;html=1;exitX=0.5;exitY=1;exitDx=0;exitDy=0;entryX=0.5;entryY=0;entryDx=0;entryDy=0;" edge="1" parent="1" source="gsk25Ts8o4jq-v6EUmC2-34" target="gsk25Ts8o4jq-v6EUmC2-2">
          <mxGeometry x="-0.0031" relative="1" as="geometry">
            <mxPoint x="300" y="170" as="targetPoint" />
            <mxPoint as="offset" />
          </mxGeometry>
        </mxCell>
        <mxCell id="gsk25Ts8o4jq-v6EUmC2-34" value="Start page" style="rounded=0;whiteSpace=wrap;html=1;" vertex="1" parent="1">
          <mxGeometry x="300" y="13" width="120" height="60" as="geometry" />
        </mxCell>
        <mxCell id="gsk25Ts8o4jq-v6EUmC2-37" value="" style="ellipse;html=1;shape=endState;fillColor=#000000;strokeColor=#ff0000;" vertex="1" parent="1">
          <mxGeometry x="30" y="90" width="30" height="30" as="geometry" />
        </mxCell>
        <mxCell id="gsk25Ts8o4jq-v6EUmC2-38" value="" style="ellipse;whiteSpace=wrap;html=1;aspect=fixed;fillColor=#000000;" vertex="1" parent="1">
          <mxGeometry x="32.5" y="48" width="25" height="25" as="geometry" />
        </mxCell>
      </root>
    </mxGraphModel>
  </diagram>
</mxfile>
